<svg id="visual" viewBox="0 0 900 600" width="900" height="600" xmlns="http://www.w3.org/2000/svg" xmlns:xlink="http://www.w3.org/1999/xlink" version="1.1"><path d="M0 217L18.8 203.8C37.7 190.7 75.3 164.3 112.8 164C150.3 163.7 187.7 189.3 225.2 187.5C262.7 185.7 300.3 156.3 337.8 147C375.3 137.7 412.7 148.3 450.2 148C487.7 147.7 525.3 136.3 562.8 135C600.3 133.7 637.7 142.3 675.2 158.8C712.7 175.3 750.3 199.7 787.8 209.5C825.3 219.3 862.7 214.7 881.3 212.3L900 210L900 0L881.3 0C862.7 0 825.3 0 787.8 0C750.3 0 712.7 0 675.2 0C637.7 0 600.3 0 562.8 0C525.3 0 487.7 0 450.2 0C412.7 0 375.3 0 337.8 0C300.3 0 262.7 0 225.2 0C187.7 0 150.3 0 112.8 0C75.3 0 37.7 0 18.8 0L0 0Z" fill="#990012" stroke-linecap="round" stroke-linejoin="miter"></path></svg>